<mxfile host="app.diagrams.net" agent="Mozilla/5.0 (Windows NT 10.0; Win64; x64) AppleWebKit/537.36 (KHTML, like Gecko) Chrome/130.0.0.0 Safari/537.36" version="24.8.6">
  <diagram id="C5RBs43oDa-KdzZeNtuy" name="Page-1">
    <mxGraphModel dx="1290" dy="557" grid="1" gridSize="10" guides="1" tooltips="1" connect="1" arrows="1" fold="1" page="1" pageScale="1" pageWidth="827" pageHeight="1169" math="0" shadow="0">
      <root>
        <mxCell id="WIyWlLk6GJQsqaUBKTNV-0" />
        <mxCell id="WIyWlLk6GJQsqaUBKTNV-1" parent="WIyWlLk6GJQsqaUBKTNV-0" />
        <mxCell id="_EFKfIGJ8B5-Q60qJEx_-2" value="" style="edgeStyle=orthogonalEdgeStyle;rounded=0;orthogonalLoop=1;jettySize=auto;html=1;" edge="1" parent="WIyWlLk6GJQsqaUBKTNV-1" source="_EFKfIGJ8B5-Q60qJEx_-0" target="_EFKfIGJ8B5-Q60qJEx_-1">
          <mxGeometry relative="1" as="geometry" />
        </mxCell>
        <mxCell id="_EFKfIGJ8B5-Q60qJEx_-0" value="START&lt;div&gt;&lt;br&gt;&lt;/div&gt;" style="ellipse;whiteSpace=wrap;html=1;" vertex="1" parent="WIyWlLk6GJQsqaUBKTNV-1">
          <mxGeometry x="340" y="20" width="90" height="80" as="geometry" />
        </mxCell>
        <mxCell id="_EFKfIGJ8B5-Q60qJEx_-4" value="" style="edgeStyle=orthogonalEdgeStyle;rounded=0;orthogonalLoop=1;jettySize=auto;html=1;" edge="1" parent="WIyWlLk6GJQsqaUBKTNV-1" source="_EFKfIGJ8B5-Q60qJEx_-1" target="_EFKfIGJ8B5-Q60qJEx_-3">
          <mxGeometry relative="1" as="geometry" />
        </mxCell>
        <mxCell id="_EFKfIGJ8B5-Q60qJEx_-6" value="" style="edgeStyle=orthogonalEdgeStyle;rounded=0;orthogonalLoop=1;jettySize=auto;html=1;" edge="1" parent="WIyWlLk6GJQsqaUBKTNV-1" source="_EFKfIGJ8B5-Q60qJEx_-1" target="_EFKfIGJ8B5-Q60qJEx_-5">
          <mxGeometry relative="1" as="geometry" />
        </mxCell>
        <mxCell id="_EFKfIGJ8B5-Q60qJEx_-1" value="nhập a,b" style="whiteSpace=wrap;html=1;" vertex="1" parent="WIyWlLk6GJQsqaUBKTNV-1">
          <mxGeometry x="325" y="190" width="120" height="60" as="geometry" />
        </mxCell>
        <mxCell id="_EFKfIGJ8B5-Q60qJEx_-8" value="" style="edgeStyle=orthogonalEdgeStyle;rounded=0;orthogonalLoop=1;jettySize=auto;html=1;" edge="1" parent="WIyWlLk6GJQsqaUBKTNV-1" source="_EFKfIGJ8B5-Q60qJEx_-3" target="_EFKfIGJ8B5-Q60qJEx_-7">
          <mxGeometry relative="1" as="geometry" />
        </mxCell>
        <mxCell id="_EFKfIGJ8B5-Q60qJEx_-3" value="a!=0" style="rhombus;whiteSpace=wrap;html=1;" vertex="1" parent="WIyWlLk6GJQsqaUBKTNV-1">
          <mxGeometry x="160" y="310" width="80" height="80" as="geometry" />
        </mxCell>
        <mxCell id="_EFKfIGJ8B5-Q60qJEx_-10" value="" style="edgeStyle=orthogonalEdgeStyle;rounded=0;orthogonalLoop=1;jettySize=auto;html=1;" edge="1" parent="WIyWlLk6GJQsqaUBKTNV-1" source="_EFKfIGJ8B5-Q60qJEx_-5" target="_EFKfIGJ8B5-Q60qJEx_-9">
          <mxGeometry relative="1" as="geometry" />
        </mxCell>
        <mxCell id="_EFKfIGJ8B5-Q60qJEx_-5" value="a=0" style="rhombus;whiteSpace=wrap;html=1;" vertex="1" parent="WIyWlLk6GJQsqaUBKTNV-1">
          <mxGeometry x="555" y="310" width="80" height="80" as="geometry" />
        </mxCell>
        <mxCell id="_EFKfIGJ8B5-Q60qJEx_-7" value="X= -b/a" style="rhombus;whiteSpace=wrap;html=1;" vertex="1" parent="WIyWlLk6GJQsqaUBKTNV-1">
          <mxGeometry x="160" y="470" width="80" height="80" as="geometry" />
        </mxCell>
        <mxCell id="_EFKfIGJ8B5-Q60qJEx_-9" value="in&lt;div&gt;phương trinh&lt;/div&gt;&lt;div&gt;vô nghiệm&lt;/div&gt;" style="rhombus;whiteSpace=wrap;html=1;" vertex="1" parent="WIyWlLk6GJQsqaUBKTNV-1">
          <mxGeometry x="540" y="470" width="110" height="80" as="geometry" />
        </mxCell>
        <mxCell id="_EFKfIGJ8B5-Q60qJEx_-11" value="END" style="ellipse;whiteSpace=wrap;html=1;" vertex="1" parent="WIyWlLk6GJQsqaUBKTNV-1">
          <mxGeometry x="360" y="600" width="80" height="80" as="geometry" />
        </mxCell>
        <mxCell id="_EFKfIGJ8B5-Q60qJEx_-15" value="" style="endArrow=none;html=1;rounded=0;entryX=0.5;entryY=1;entryDx=0;entryDy=0;" edge="1" parent="WIyWlLk6GJQsqaUBKTNV-1" target="_EFKfIGJ8B5-Q60qJEx_-7">
          <mxGeometry width="50" height="50" relative="1" as="geometry">
            <mxPoint x="200" y="640" as="sourcePoint" />
            <mxPoint x="450" y="540" as="targetPoint" />
          </mxGeometry>
        </mxCell>
        <mxCell id="_EFKfIGJ8B5-Q60qJEx_-16" value="" style="endArrow=classic;html=1;rounded=0;entryX=0;entryY=0.5;entryDx=0;entryDy=0;" edge="1" parent="WIyWlLk6GJQsqaUBKTNV-1" target="_EFKfIGJ8B5-Q60qJEx_-11">
          <mxGeometry width="50" height="50" relative="1" as="geometry">
            <mxPoint x="200" y="640" as="sourcePoint" />
            <mxPoint x="450" y="540" as="targetPoint" />
          </mxGeometry>
        </mxCell>
        <mxCell id="_EFKfIGJ8B5-Q60qJEx_-19" value="" style="endArrow=none;html=1;rounded=0;entryX=0.5;entryY=1;entryDx=0;entryDy=0;" edge="1" parent="WIyWlLk6GJQsqaUBKTNV-1" target="_EFKfIGJ8B5-Q60qJEx_-9">
          <mxGeometry width="50" height="50" relative="1" as="geometry">
            <mxPoint x="595" y="640" as="sourcePoint" />
            <mxPoint x="450" y="540" as="targetPoint" />
          </mxGeometry>
        </mxCell>
        <mxCell id="_EFKfIGJ8B5-Q60qJEx_-21" value="" style="endArrow=classic;html=1;rounded=0;entryX=1;entryY=0.5;entryDx=0;entryDy=0;" edge="1" parent="WIyWlLk6GJQsqaUBKTNV-1" target="_EFKfIGJ8B5-Q60qJEx_-11">
          <mxGeometry width="50" height="50" relative="1" as="geometry">
            <mxPoint x="590" y="640" as="sourcePoint" />
            <mxPoint x="450" y="540" as="targetPoint" />
          </mxGeometry>
        </mxCell>
      </root>
    </mxGraphModel>
  </diagram>
</mxfile>
